<?xml version="1.0" encoding="UTF-8" standalone="no"?>
<!DOCTYPE svg PUBLIC "-//W3C//DTD SVG 1.1//EN"
 "http://www.w3.org/Graphics/SVG/1.1/DTD/svg11.dtd">
<!-- Generated by graphviz version 2.47.0 (0)
 -->
<!-- Title: Tree Pages: 1 -->
<svg width="360pt" height="314pt"
 viewBox="0.00 0.00 360.00 314.00" xmlns="http://www.w3.org/2000/svg" xmlns:xlink="http://www.w3.org/1999/xlink">
<g id="graph0" class="graph" transform="scale(1 1) rotate(0) translate(4 310)">
<title>Tree</title>
<polygon fill="white" stroke="transparent" points="-4,4 -4,-310 356,-310 356,4 -4,4"/>
<!-- 0 -->
<g id="node1" class="node">
<title>0</title>
<path fill="#ffffff" stroke="black" d="M215,-306C215,-306 67,-306 67,-306 61,-306 55,-300 55,-294 55,-294 55,-235 55,-235 55,-229 61,-223 67,-223 67,-223 215,-223 215,-223 221,-223 227,-229 227,-235 227,-235 227,-294 227,-294 227,-300 221,-306 215,-306"/>
<text text-anchor="middle" x="141" y="-290.8" font-family="Helvetica,sans-Serif" font-size="14.00">petal length (cm) &lt;= 2.45</text>
<text text-anchor="middle" x="141" y="-275.8" font-family="Helvetica,sans-Serif" font-size="14.00">gini = 0.667</text>
<text text-anchor="middle" x="141" y="-260.8" font-family="Helvetica,sans-Serif" font-size="14.00">samples = 150</text>
<text text-anchor="middle" x="141" y="-245.8" font-family="Helvetica,sans-Serif" font-size="14.00">value = [50, 50, 50]</text>
<text text-anchor="middle" x="141" y="-230.8" font-family="Helvetica,sans-Serif" font-size="14.00">class = setosa</text>
</g>
<!-- 1 -->
<g id="node2" class="node">
<title>1</title>
<path fill="#e58139" stroke="black" d="M108,-179.5C108,-179.5 12,-179.5 12,-179.5 6,-179.5 0,-173.5 0,-167.5 0,-167.5 0,-123.5 0,-123.5 0,-117.5 6,-111.5 12,-111.5 12,-111.5 108,-111.5 108,-111.5 114,-111.5 120,-117.5 120,-123.5 120,-123.5 120,-167.5 120,-167.5 120,-173.5 114,-179.5 108,-179.5"/>
<text text-anchor="middle" x="60" y="-164.3" font-family="Helvetica,sans-Serif" font-size="14.00">gini = 0.0</text>
<text text-anchor="middle" x="60" y="-149.3" font-family="Helvetica,sans-Serif" font-size="14.00">samples = 50</text>
<text text-anchor="middle" x="60" y="-134.3" font-family="Helvetica,sans-Serif" font-size="14.00">value = [50, 0, 0]</text>
<text text-anchor="middle" x="60" y="-119.3" font-family="Helvetica,sans-Serif" font-size="14.00">class = setosa</text>
</g>
<!-- 0&#45;&gt;1 -->
<g id="edge1" class="edge">
<title>0&#45;&gt;1</title>
<path fill="none" stroke="black" d="M112.9,-222.91C105.11,-211.65 96.64,-199.42 88.8,-188.11"/>
<polygon fill="black" stroke="black" points="91.53,-185.9 82.96,-179.67 85.78,-189.88 91.53,-185.9"/>
<text text-anchor="middle" x="78.49" y="-200.56" font-family="Helvetica,sans-Serif" font-size="14.00">True</text>
</g>
<!-- 2 -->
<g id="node3" class="node">
<title>2</title>
<path fill="#ffffff" stroke="black" d="M293.5,-187C293.5,-187 150.5,-187 150.5,-187 144.5,-187 138.5,-181 138.5,-175 138.5,-175 138.5,-116 138.5,-116 138.5,-110 144.5,-104 150.5,-104 150.5,-104 293.5,-104 293.5,-104 299.5,-104 305.5,-110 305.5,-116 305.5,-116 305.5,-175 305.5,-175 305.5,-181 299.5,-187 293.5,-187"/>
<text text-anchor="middle" x="222" y="-171.8" font-family="Helvetica,sans-Serif" font-size="14.00">petal width (cm) &lt;= 1.75</text>
<text text-anchor="middle" x="222" y="-156.8" font-family="Helvetica,sans-Serif" font-size="14.00">gini = 0.5</text>
<text text-anchor="middle" x="222" y="-141.8" font-family="Helvetica,sans-Serif" font-size="14.00">samples = 100</text>
<text text-anchor="middle" x="222" y="-126.8" font-family="Helvetica,sans-Serif" font-size="14.00">value = [0, 50, 50]</text>
<text text-anchor="middle" x="222" y="-111.8" font-family="Helvetica,sans-Serif" font-size="14.00">class = versicolor</text>
</g>
<!-- 0&#45;&gt;2 -->
<g id="edge2" class="edge">
<title>0&#45;&gt;2</title>
<path fill="none" stroke="black" d="M169.1,-222.91C175.26,-214.01 181.84,-204.51 188.19,-195.33"/>
<polygon fill="black" stroke="black" points="191.13,-197.24 193.95,-187.02 185.38,-193.25 191.13,-197.24"/>
<text text-anchor="middle" x="198.42" y="-207.92" font-family="Helvetica,sans-Serif" font-size="14.00">False</text>
</g>
<!-- 3 -->
<g id="node4" class="node">
<title>3</title>
<path fill="#4de88e" stroke="black" d="M202,-68C202,-68 102,-68 102,-68 96,-68 90,-62 90,-56 90,-56 90,-12 90,-12 90,-6 96,0 102,0 102,0 202,0 202,0 208,0 214,-6 214,-12 214,-12 214,-56 214,-56 214,-62 208,-68 202,-68"/>
<text text-anchor="middle" x="152" y="-52.8" font-family="Helvetica,sans-Serif" font-size="14.00">gini = 0.168</text>
<text text-anchor="middle" x="152" y="-37.8" font-family="Helvetica,sans-Serif" font-size="14.00">samples = 54</text>
<text text-anchor="middle" x="152" y="-22.8" font-family="Helvetica,sans-Serif" font-size="14.00">value = [0, 49, 5]</text>
<text text-anchor="middle" x="152" y="-7.8" font-family="Helvetica,sans-Serif" font-size="14.00">class = versicolor</text>
</g>
<!-- 2&#45;&gt;3 -->
<g id="edge3" class="edge">
<title>2&#45;&gt;3</title>
<path fill="none" stroke="black" d="M195.93,-103.73C190.34,-94.97 184.41,-85.7 178.79,-76.91"/>
<polygon fill="black" stroke="black" points="181.62,-74.84 173.29,-68.3 175.72,-78.61 181.62,-74.84"/>
</g>
<!-- 4 -->
<g id="node5" class="node">
<title>4</title>
<path fill="#843de6" stroke="black" d="M340,-68C340,-68 244,-68 244,-68 238,-68 232,-62 232,-56 232,-56 232,-12 232,-12 232,-6 238,0 244,0 244,0 340,0 340,0 346,0 352,-6 352,-12 352,-12 352,-56 352,-56 352,-62 346,-68 340,-68"/>
<text text-anchor="middle" x="292" y="-52.8" font-family="Helvetica,sans-Serif" font-size="14.00">gini = 0.043</text>
<text text-anchor="middle" x="292" y="-37.8" font-family="Helvetica,sans-Serif" font-size="14.00">samples = 46</text>
<text text-anchor="middle" x="292" y="-22.8" font-family="Helvetica,sans-Serif" font-size="14.00">value = [0, 1, 45]</text>
<text text-anchor="middle" x="292" y="-7.8" font-family="Helvetica,sans-Serif" font-size="14.00">class = virginica</text>
</g>
<!-- 2&#45;&gt;4 -->
<g id="edge4" class="edge">
<title>2&#45;&gt;4</title>
<path fill="none" stroke="black" d="M248.07,-103.73C253.66,-94.97 259.59,-85.7 265.21,-76.91"/>
<polygon fill="black" stroke="black" points="268.28,-78.61 270.71,-68.3 262.38,-74.84 268.28,-78.61"/>
</g>
</g>
</svg>
